# xmcd
#
# Track frame offsets:
#	150
#	22315
#	44104
#	60809
#	82359
#	100586
#	116439
#	131284
#	147904
#	170221
#	188499
#	202177
#	213119
#	227852
#	242632
#	255577
#	269814
#	282569
#	298299
#	316279
#
# Disc length: 4472 seconds
#
# Revision: 1
# Processed by: cddbd v1.5.2PL0 Copyright (c) Steve Scherf et al.
# Submitted via: audiograbber 1.83.01
#
DISCID=3e117614
DTITLE=Bee Gees - Tribute to
DYEAR=1900
DGENRE=
TTITLE0=this is where i came in
TTITLE1=2 alone
TTITLE2=i could not love you more
TTITLE3=stayin` alive
TTITLE4=hoe deep is your love
TTITLE5=night fever
TTITLE6=more than a women
TTITLE7=emotion
TTITLE8=too much heaven
TTITLE9=you win again 
TTITLE10=to love somebody
TTITLE11=massachusetts
TTITLE12=world
TTITLE13=words
TTITLE14=i´ve gotta get a message to you
TTITLE15=i started a joke
TTITLE16=first of may
TTITLE17=don´t forget to remember
TTITLE18=how can you mend a broken heart
TTITLE19=you should be dancing
EXTD=
EXTT0=
EXTT1=
EXTT2=
EXTT3=
EXTT4=
EXTT5=
EXTT6=
EXTT7=
EXTT8=
EXTT9=
EXTT10=
EXTT11=
EXTT12=
EXTT13=
EXTT14=
EXTT15=
EXTT16=
EXTT17=
EXTT18=
EXTT19=
PLAYORDER=
